<svg width="401" height="105" viewBox="0 0 401 105" fill="none" xmlns="http://www.w3.org/2000/svg">
<path d="M48.735 72.7882V83H14.9139V72.7882H48.735ZM19.1907 19.46V83H6.09863V19.46H19.1907ZM44.3274 45.3386V55.2885H14.9139V45.3386H44.3274ZM48.6914 19.46V29.7154H14.9139V19.46H48.6914ZM65.5801 49.0043L77.7994 41.1055C79.6032 39.9126 80.8105 38.7634 81.4215 37.6579C82.0325 36.5523 82.338 35.3159 82.338 33.9485C82.338 32.5811 81.8288 31.3155 80.8105 30.1518C79.7923 28.959 78.3667 28.3625 76.5338 28.3625C75.2246 28.3625 74.1191 28.668 73.2172 29.279C72.3153 29.8609 71.6316 30.6464 71.1661 31.6356C70.7297 32.6247 70.5115 33.7303 70.5115 34.9522C70.5115 36.2614 70.8606 37.5997 71.5588 38.9671C72.2571 40.3054 73.2026 41.731 74.3954 43.2438C75.5883 44.7276 76.912 46.3423 78.3667 48.0879L108.347 83H94.0771L69.6387 54.7212C67.573 52.161 65.7692 49.8189 64.2273 47.6951C62.6853 45.5422 61.478 43.4475 60.6052 41.4109C59.7324 39.3744 59.296 37.2797 59.296 35.1268C59.296 31.8101 60.0087 28.9153 61.4343 26.4424C62.8599 23.9403 64.8674 22.0056 67.4567 20.6382C70.046 19.2418 73.0862 18.5435 76.5775 18.5435C79.865 18.5435 82.7162 19.2272 85.1309 20.5946C87.5457 21.9329 89.4077 23.7076 90.7169 25.9187C92.0552 28.1298 92.7243 30.5591 92.7243 33.2066C92.7243 35.185 92.3606 37.0178 91.6333 38.7053C90.906 40.3636 89.9022 41.9055 88.6221 43.3311C87.342 44.7276 85.8728 46.0223 84.2145 47.2151L70.2933 57.1214C69.2168 58.1106 68.4022 59.0852 67.8494 60.0453C67.2967 61.0054 66.9184 61.9218 66.7148 62.7946C66.5111 63.6383 66.4093 64.4529 66.4093 65.2385C66.4093 66.9259 66.773 68.4387 67.5003 69.777C68.2276 71.1153 69.2459 72.1627 70.5551 72.9191C71.8643 73.6756 73.3917 74.0538 75.1373 74.0538C77.523 74.0538 79.8359 73.5301 82.0761 72.4827C84.3163 71.4354 86.3238 69.9371 88.0984 67.9878C89.8731 66.0094 91.2842 63.6674 92.3315 60.9617C93.3789 58.256 93.9026 55.274 93.9026 52.0155H104.551C104.551 55.274 104.231 58.3724 103.591 61.3109C102.951 64.2202 101.918 66.9259 100.492 69.4279C99.0667 71.9009 97.1756 74.0974 94.819 76.0176C94.6445 76.163 94.3972 76.3812 94.0771 76.6722C93.7862 76.934 93.5389 77.1377 93.3353 77.2831C90.5423 79.5233 87.633 81.1962 84.6072 82.3018C81.5815 83.3782 78.2067 83.9164 74.4827 83.9164C70.2351 83.9164 66.5548 83.1455 63.4418 81.6035C60.3579 80.0616 57.9722 77.9377 56.2848 75.2321C54.6265 72.5264 53.7973 69.4279 53.7973 65.9367C53.7973 63.3765 54.2919 61.1508 55.2811 59.2598C56.2993 57.3396 57.6958 55.5649 59.4705 53.9357C61.2452 52.3064 63.2818 50.6627 65.5801 49.0043ZM141.034 30.3264L123.752 83H109.831L133.441 19.46H142.299L141.034 30.3264ZM155.392 83L138.066 30.3264L136.67 19.46H145.616L169.356 83H155.392ZM154.606 59.347V69.6025H121.047V59.347H154.606Z" fill="white"/>
<g filter="url(#filter0_d_1_148)">
<path d="M170.136 19.46V83H157.044V19.46H170.136ZM195.448 46.6041V56.8159H166.558V46.6041H195.448ZM198.503 19.46V29.7154H166.558V19.46H198.503ZM202.343 59.8707V58.9543C202.343 55.4922 202.837 52.3064 203.827 49.3971C204.816 46.4587 206.256 43.913 208.147 41.7601C210.038 39.6072 212.366 37.9343 215.129 36.7415C217.893 35.5195 221.065 34.9086 224.643 34.9086C228.221 34.9086 231.407 35.5195 234.2 36.7415C236.993 37.9343 239.335 39.6072 241.226 41.7601C243.146 43.913 244.601 46.4587 245.59 49.3971C246.579 52.3064 247.074 55.4922 247.074 58.9543V59.8707C247.074 63.3038 246.579 66.4895 245.59 69.4279C244.601 72.3373 243.146 74.8829 241.226 77.0649C239.335 79.2179 237.008 80.8907 234.244 82.0836C231.48 83.2764 228.309 83.8728 224.73 83.8728C221.152 83.8728 217.966 83.2764 215.173 82.0836C212.409 80.8907 210.067 79.2179 208.147 77.0649C206.256 74.8829 204.816 72.3373 203.827 69.4279C202.837 66.4895 202.343 63.3038 202.343 59.8707ZM214.911 58.9543V59.8707C214.911 61.8491 215.086 63.6965 215.435 65.413C215.784 67.1295 216.337 68.6424 217.093 69.9516C217.879 71.2317 218.897 72.2354 220.148 72.9628C221.399 73.6901 222.926 74.0538 224.73 74.0538C226.476 74.0538 227.974 73.6901 229.225 72.9628C230.476 72.2354 231.48 71.2317 232.236 69.9516C232.993 68.6424 233.546 67.1295 233.895 65.413C234.273 63.6965 234.462 61.8491 234.462 59.8707V58.9543C234.462 57.0341 234.273 55.2303 233.895 53.5429C233.546 51.8264 232.978 50.3135 232.193 49.0043C231.436 47.666 230.433 46.6187 229.182 45.8622C227.931 45.1058 226.418 44.7276 224.643 44.7276C222.868 44.7276 221.355 45.1058 220.104 45.8622C218.883 46.6187 217.879 47.666 217.093 49.0043C216.337 50.3135 215.784 51.8264 215.435 53.5429C215.086 55.2303 214.911 57.0341 214.911 58.9543ZM252.791 59.8707V58.9543C252.791 55.4922 253.285 52.3064 254.275 49.3971C255.264 46.4587 256.704 43.913 258.595 41.7601C260.486 39.6072 262.814 37.9343 265.577 36.7415C268.341 35.5195 271.513 34.9086 275.091 34.9086C278.669 34.9086 281.855 35.5195 284.648 36.7415C287.441 37.9343 289.783 39.6072 291.674 41.7601C293.594 43.913 295.049 46.4587 296.038 49.3971C297.027 52.3064 297.522 55.4922 297.522 58.9543V59.8707C297.522 63.3038 297.027 66.4895 296.038 69.4279C295.049 72.3373 293.594 74.8829 291.674 77.0649C289.783 79.2179 287.456 80.8907 284.692 82.0836C281.928 83.2764 278.757 83.8728 275.178 83.8728C271.6 83.8728 268.414 83.2764 265.621 82.0836C262.857 80.8907 260.515 79.2179 258.595 77.0649C256.704 74.8829 255.264 72.3373 254.275 69.4279C253.285 66.4895 252.791 63.3038 252.791 59.8707ZM265.359 58.9543V59.8707C265.359 61.8491 265.534 63.6965 265.883 65.413C266.232 67.1295 266.785 68.6424 267.541 69.9516C268.327 71.2317 269.345 72.2354 270.596 72.9628C271.847 73.6901 273.374 74.0538 275.178 74.0538C276.924 74.0538 278.422 73.6901 279.673 72.9628C280.924 72.2354 281.928 71.2317 282.684 69.9516C283.441 68.6424 283.994 67.1295 284.343 65.413C284.721 63.6965 284.91 61.8491 284.91 59.8707V58.9543C284.91 57.0341 284.721 55.2303 284.343 53.5429C283.994 51.8264 283.426 50.3135 282.641 49.0043C281.884 47.666 280.881 46.6187 279.63 45.8622C278.379 45.1058 276.866 44.7276 275.091 44.7276C273.316 44.7276 271.803 45.1058 270.552 45.8622C269.331 46.6187 268.327 47.666 267.541 49.0043C266.785 50.3135 266.232 51.8264 265.883 53.5429C265.534 55.2303 265.359 57.0341 265.359 58.9543ZM333.132 72.7009V15.9688H345.788V83H334.398L333.132 72.7009ZM303.283 59.958V59.0416C303.283 55.434 303.69 52.161 304.504 49.2225C305.319 46.255 306.512 43.7093 308.083 41.5855C309.654 39.4617 311.589 37.8179 313.887 36.6542C316.185 35.4904 318.804 34.9086 321.742 34.9086C324.506 34.9086 326.921 35.4904 328.987 36.6542C331.081 37.8179 332.856 39.4762 334.311 41.6292C335.794 43.753 336.987 46.2696 337.889 49.1789C338.791 52.0591 339.446 55.2158 339.853 58.6488V60.6562C339.446 63.9438 338.791 66.9986 337.889 69.8207C336.987 72.6427 335.794 75.1157 334.311 77.2395C332.856 79.3342 331.081 80.9635 328.987 82.1272C326.892 83.2909 324.448 83.8728 321.655 83.8728C318.717 83.8728 316.098 83.2764 313.8 82.0836C311.531 80.8907 309.61 79.2179 308.039 77.0649C306.497 74.912 305.319 72.3809 304.504 69.4716C303.69 66.5622 303.283 63.391 303.283 59.958ZM315.851 59.0416V59.958C315.851 61.9073 315.996 63.7256 316.287 65.413C316.607 67.1004 317.116 68.5988 317.815 69.908C318.542 71.1881 319.473 72.1918 320.608 72.9191C321.771 73.6174 323.182 73.9665 324.841 73.9665C326.994 73.9665 328.768 73.4865 330.165 72.5264C331.561 71.5372 332.623 70.1843 333.351 68.4678C334.107 66.7513 334.543 64.773 334.66 62.5328V56.8159C334.573 54.983 334.311 53.3393 333.874 51.8846C333.467 50.4008 332.856 49.1353 332.041 48.0879C331.256 47.0405 330.267 46.2259 329.074 45.644C327.91 45.0622 326.528 44.7712 324.928 44.7712C323.299 44.7712 321.902 45.1495 320.739 45.9059C319.575 46.6332 318.629 47.6369 317.902 48.9171C317.204 50.1972 316.68 51.71 316.331 53.4556C316.011 55.1721 315.851 57.0341 315.851 59.0416ZM381.137 69.9516C381.137 69.0497 380.875 68.2351 380.351 67.5078C379.827 66.7804 378.853 66.1113 377.427 65.5003C376.031 64.8602 374.009 64.2784 371.361 63.7547C368.975 63.231 366.75 62.5764 364.684 61.7909C362.648 60.9763 360.873 60.0016 359.36 58.867C357.876 57.7324 356.713 56.3941 355.869 54.8521C355.025 53.2811 354.603 51.4918 354.603 49.4844C354.603 47.506 355.025 45.644 355.869 43.8984C356.742 42.1528 357.978 40.6109 359.578 39.2726C361.208 37.9052 363.186 36.8433 365.513 36.0869C367.87 35.3013 370.517 34.9086 373.456 34.9086C377.558 34.9086 381.078 35.5632 384.017 36.8724C386.984 38.1816 389.254 39.9854 390.825 42.2838C392.425 44.553 393.225 47.1424 393.225 50.0517H380.656C380.656 48.8298 380.395 47.7388 379.871 46.7787C379.376 45.7895 378.591 45.0185 377.514 44.4658C376.467 43.8839 375.1 43.593 373.412 43.593C372.016 43.593 370.808 43.8403 369.79 44.3348C368.772 44.8003 367.986 45.4404 367.434 46.255C366.91 47.0405 366.648 47.9133 366.648 48.8734C366.648 49.6007 366.793 50.2554 367.084 50.8372C367.404 51.39 367.914 51.8991 368.612 52.3646C369.31 52.8301 370.212 53.2665 371.318 53.6738C372.452 54.052 373.849 54.4012 375.507 54.7212C378.911 55.4194 381.951 56.3359 384.628 57.4705C387.304 58.5761 389.428 60.0889 390.999 62.0091C392.57 63.9002 393.356 66.3877 393.356 69.4716C393.356 71.5663 392.89 73.4865 391.959 75.2321C391.028 76.9777 389.69 78.5051 387.944 79.8143C386.199 81.0944 384.104 82.0981 381.66 82.8254C379.245 83.5237 376.525 83.8728 373.5 83.8728C369.106 83.8728 365.382 83.0873 362.328 81.5162C359.302 79.9452 357.004 77.9523 355.432 75.5375C353.891 73.0937 353.12 70.5917 353.12 68.0314H365.033C365.092 69.7479 365.528 71.1299 366.343 72.1772C367.186 73.2246 368.248 73.981 369.528 74.4465C370.837 74.912 372.248 75.1448 373.761 75.1448C375.391 75.1448 376.743 74.9266 377.82 74.4902C378.896 74.0247 379.711 73.4137 380.264 72.6573C380.846 71.8718 381.137 70.9699 381.137 69.9516Z" fill="#FF3F4B"/>
</g>
<defs>
<filter id="filter0_d_1_148" x="148.044" y="5.96875" width="252.311" height="83.9041" filterUnits="userSpaceOnUse" color-interpolation-filters="sRGB">
<feFlood flood-opacity="0" result="BackgroundImageFix"/>
<feColorMatrix in="SourceAlpha" type="matrix" values="0 0 0 0 0 0 0 0 0 0 0 0 0 0 0 0 0 0 127 0" result="hardAlpha"/>
<feOffset dx="-1" dy="-2"/>
<feGaussianBlur stdDeviation="4"/>
<feComposite in2="hardAlpha" operator="out"/>
<feColorMatrix type="matrix" values="0 0 0 0 0 0 0 0 0 0 0 0 0 0 0 0 0 0 0.5 0"/>
<feBlend mode="normal" in2="BackgroundImageFix" result="effect1_dropShadow_1_148"/>
<feBlend mode="normal" in="SourceGraphic" in2="effect1_dropShadow_1_148" result="shape"/>
</filter>
</defs>
</svg>
